{
  "asset": {
    "version": "2.0",
    "generator": "THREE.GLTFExporter r165"
  },
  "scenes": [
    {
      "name": "Scene",
      "nodes": [
        13
      ]
    }
  ],
  "scene": 0,
  "nodes": [
    {
      "name": "mesh_0",
      "mesh": 0
    },
    {
      "name": "mesh_1",
      "mesh": 1
    },
    {
      "name": "mesh_1_1",
      "mesh": 2
    },
    {
      "children": [
        1,
        2
      ]
    },
    {
      "matrix": [
        1,
        0,
        0,
        0,
        0,
        1,
        0,
        0,
        0,
        0,
        1,
        0,
        0,
        -4.996003610813204e-16,
        -2.613794777422065,
        1
      ],
      "name": "mesh_2",
      "mesh": 3
    },
    {
      "name": "mesh_3",
      "mesh": 4
    },
    {
      "name": "mesh_4",
      "mesh": 5
    },
    {
      "name": "mesh_5",
      "mesh": 6
    },
    {
      "name": "mesh_6",
      "mesh": 7
    },
    {
      "name": "mesh_7",
      "mesh": 8
    },
    {
      "name": "mesh_8",
      "mesh": 9
    },
    {
      "name": "mesh_9",
      "mesh": 10
    },
    {
      "children": [
        0,
        3,
        4,
        5,
        6,
        7,
        8,
        9,
        10,
        11
      ]
    },
    {
      "matrix": [
        1,
        0,
        0,
        0,
        0,
        2.220446049250313e-16,
        -1,
        0,
        0,
        1,
        2.220446049250313e-16,
        0,
        0,
        58.44431623890002,
        32.15734706006681,
        1
      ],
      "name": "AuxScene",
      "children": [
        12
      ]
    }
  ],
  "bufferViews": [
    {
      "buffer": 0,
      "byteOffset": 0,
      "byteLength": 91728,
      "target": 34962,
      "byteStride": 12
    },
    {
      "buffer": 0,
      "byteOffset": 91728,
      "byteLength": 91728,
      "target": 34962,
      "byteStride": 12
    },
    {
      "buffer": 0,
      "byteOffset": 183456,
      "byteLength": 61152,
      "target": 34962,
      "byteStride": 8
    },
    {
      "buffer": 0,
      "byteOffset": 244608,
      "byteLength": 432,
      "target": 34962,
      "byteStride": 12
    },
    {
      "buffer": 0,
      "byteOffset": 245040,
      "byteLength": 432,
      "target": 34962,
      "byteStride": 12
    },
    {
      "buffer": 0,
      "byteOffset": 245472,
      "byteLength": 288,
      "target": 34962,
      "byteStride": 8
    },
    {
      "buffer": 0,
      "byteOffset": 245760,
      "byteLength": 48672,
      "target": 34962,
      "byteStride": 12
    },
    {
      "buffer": 0,
      "byteOffset": 294432,
      "byteLength": 48672,
      "target": 34962,
      "byteStride": 12
    },
    {
      "buffer": 0,
      "byteOffset": 343104,
      "byteLength": 32448,
      "target": 34962,
      "byteStride": 8
    },
    {
      "buffer": 0,
      "byteOffset": 375552,
      "byteLength": 576,
      "target": 34962,
      "byteStride": 12
    },
    {
      "buffer": 0,
      "byteOffset": 376128,
      "byteLength": 576,
      "target": 34962,
      "byteStride": 12
    },
    {
      "buffer": 0,
      "byteOffset": 376704,
      "byteLength": 384,
      "target": 34962,
      "byteStride": 8
    },
    {
      "buffer": 0,
      "byteOffset": 377088,
      "byteLength": 1728,
      "target": 34962,
      "byteStride": 12
    },
    {
      "buffer": 0,
      "byteOffset": 378816,
      "byteLength": 1728,
      "target": 34962,
      "byteStride": 12
    },
    {
      "buffer": 0,
      "byteOffset": 380544,
      "byteLength": 1152,
      "target": 34962,
      "byteStride": 8
    },
    {
      "buffer": 0,
      "byteOffset": 381696,
      "byteLength": 576,
      "target": 34962,
      "byteStride": 12
    },
    {
      "buffer": 0,
      "byteOffset": 382272,
      "byteLength": 576,
      "target": 34962,
      "byteStride": 12
    },
    {
      "buffer": 0,
      "byteOffset": 382848,
      "byteLength": 384,
      "target": 34962,
      "byteStride": 8
    },
    {
      "buffer": 0,
      "byteOffset": 383232,
      "byteLength": 504,
      "target": 34962,
      "byteStride": 12
    },
    {
      "buffer": 0,
      "byteOffset": 383736,
      "byteLength": 504,
      "target": 34962,
      "byteStride": 12
    },
    {
      "buffer": 0,
      "byteOffset": 384240,
      "byteLength": 336,
      "target": 34962,
      "byteStride": 8
    },
    {
      "buffer": 0,
      "byteOffset": 384576,
      "byteLength": 2880,
      "target": 34962,
      "byteStride": 12
    },
    {
      "buffer": 0,
      "byteOffset": 387456,
      "byteLength": 2880,
      "target": 34962,
      "byteStride": 12
    },
    {
      "buffer": 0,
      "byteOffset": 390336,
      "byteLength": 1920,
      "target": 34962,
      "byteStride": 8
    },
    {
      "buffer": 0,
      "byteOffset": 392256,
      "byteLength": 2880,
      "target": 34962,
      "byteStride": 12
    },
    {
      "buffer": 0,
      "byteOffset": 395136,
      "byteLength": 2880,
      "target": 34962,
      "byteStride": 12
    },
    {
      "buffer": 0,
      "byteOffset": 398016,
      "byteLength": 1920,
      "target": 34962,
      "byteStride": 8
    },
    {
      "buffer": 0,
      "byteOffset": 399936,
      "byteLength": 2880,
      "target": 34962,
      "byteStride": 12
    },
    {
      "buffer": 0,
      "byteOffset": 402816,
      "byteLength": 2880,
      "target": 34962,
      "byteStride": 12
    },
    {
      "buffer": 0,
      "byteOffset": 405696,
      "byteLength": 1920,
      "target": 34962,
      "byteStride": 8
    }
  ],
  "buffers": [
    {
      "byteLength": 407616,
      "uri": "data:application/octet-stream;base64,"
    }
  ],
  "accessors": [
    {
      "bufferView": 0,
      "componentType": 5126,
      "count": 7644,
      "max": [
        -13.091911315917969,
        8.869207382202148,
        24.331907272338867
      ],
      "min": [
        -31.496177673339844,
        -10.257878303527832,
        -5.354426860809326
      ],
      "type": "VEC3"
    },
    {
      "bufferView": 1,
      "componentType": 5126,
      "count": 7644,
      "max": [
        0.99920654296875,
        0.999969482421875,
        0.9966124296188354
      ],
      "min": [
        -0.99993896484375,
        -0.99957275390625,
        -0.999420166015625
      ],
      "type": "VEC3"
    },
    {
      "bufferView": 2,
      "componentType": 5126,
      "count": 7644,
      "max": [
        1,
        1
      ],
      "min": [
        0,
        0.010010071098804474
      ],
      "type": "VEC2"
    },
    {
      "bufferView": 3,
      "componentType": 5126,
      "count": 36,
      "max": [
        19.555753707885742,
        38.51401901245117,
        -6.509892463684082
      ],
      "min": [
        -59.749855041503906,
        -38.51401901245117,
        -36.74235534667969
      ],
      "type": "VEC3"
    },
    {
      "bufferView": 4,
      "componentType": 5126,
      "count": 36,
      "max": [
        0.5773491859436035,
        0.5773491859436035,
        0.5773491859436035
      ],
      "min": [
        -0.5773491859436035,
        -0.5773491859436035,
        -0.5773491859436035
      ],
      "type": "VEC3"
    },
    {
      "bufferView": 5,
      "componentType": 5126,
      "count": 36,
      "max": [
        0.8749961853027344,
        1
      ],
      "min": [
        0.12500381469726562,
        0
      ],
      "type": "VEC2"
    },
    {
      "bufferView": 6,
      "componentType": 5126,
      "count": 4056,
      "max": [
        10.293023109436035,
        31.468219757080078,
        -1.0623708963394165
      ],
      "min": [
        -50.036128997802734,
        -29.519367218017578,
        -3.5627281665802
      ],
      "type": "VEC3"
    },
    {
      "bufferView": 7,
      "componentType": 5126,
      "count": 4056,
      "max": [
        0.2547074854373932,
        0.17593920230865479,
        1
      ],
      "min": [
        -0.2229987531900406,
        -0.18124942481517792,
        0.9631946682929993
      ],
      "type": "VEC3"
    },
    {
      "bufferView": 8,
      "componentType": 5126,
      "count": 4056,
      "max": [
        0.8193609714508057,
        0.999359130859375
      ],
      "min": [
        0.15427106618881226,
        -0.99969482421875
      ],
      "type": "VEC2"
    },
    {
      "bufferView": 9,
      "componentType": 5126,
      "count": 48,
      "max": [
        47.9201545715332,
        5.279300212860107,
        -32.2696647644043
      ],
      "min": [
        36.6377067565918,
        -1.983171820640564,
        -34.78425979614258
      ],
      "type": "VEC3"
    },
    {
      "bufferView": 10,
      "componentType": 5126,
      "count": 48,
      "max": [
        0.34574419260025024,
        0.4121524691581726,
        0.9938657879829407
      ],
      "min": [
        -0.38520461320877075,
        -0.26538896560668945,
        0.8508255481719971
      ],
      "type": "VEC3"
    },
    {
      "bufferView": 11,
      "componentType": 5126,
      "count": 48,
      "max": [
        0.9002655148506165,
        1
      ],
      "min": [
        0,
        0
      ],
      "type": "VEC2"
    },
    {
      "bufferView": 12,
      "componentType": 5126,
      "count": 144,
      "max": [
        58.45623016357422,
        -28.987337112426758,
        -29.978986740112305
      ],
      "min": [
        32.93620300292969,
        -32.03654479980469,
        -33.66794967651367
      ],
      "type": "VEC3"
    },
    {
      "bufferView": 13,
      "componentType": 5126,
      "count": 144,
      "max": [
        0.37800225615501404,
        -0.011535996571183205,
        -0.6848048567771912
      ],
      "min": [
        -0.17288735508918762,
        -0.7195043563842773,
        -0.9931333065032959
      ],
      "type": "VEC3"
    },
    {
      "bufferView": 14,
      "componentType": 5126,
      "count": 144,
      "max": [
        0.011535996571183205,
        1
      ],
      "min": [
        0,
        0
      ],
      "type": "VEC2"
    },
    {
      "bufferView": 15,
      "componentType": 5126,
      "count": 48,
      "max": [
        59.749855041503906,
        -23.499813079833984,
        -25.360002517700195
      ],
      "min": [
        36.15813446044922,
        -26.536224365234375,
        -30.84916114807129
      ],
      "type": "VEC3"
    },
    {
      "bufferView": 16,
      "componentType": 5126,
      "count": 48,
      "max": [
        0.00674459058791399,
        0.40159305930137634,
        0.9748527407646179
      ],
      "min": [
        -0.3487350046634674,
        0.20081178843975067,
        0.8670308589935303
      ],
      "type": "VEC3"
    },
    {
      "bufferView": 17,
      "componentType": 5126,
      "count": 48,
      "max": [
        1,
        1
      ],
      "min": [
        0,
        0
      ],
      "type": "VEC2"
    },
    {
      "bufferView": 18,
      "componentType": 5126,
      "count": 42,
      "max": [
        55.02352523803711,
        -20.6265811920166,
        -24.133882522583008
      ],
      "min": [
        41.907325744628906,
        -22.92717170715332,
        -29.59454917907715
      ],
      "type": "VEC3"
    },
    {
      "bufferView": 19,
      "componentType": 5126,
      "count": 42,
      "max": [
        0.6235541701316833,
        0.10968352109193802,
        0.9933775067329407
      ],
      "min": [
        0.03460799157619476,
        0.08624530583620071,
        0.7770012617111206
      ],
      "type": "VEC3"
    },
    {
      "bufferView": 20,
      "componentType": 5126,
      "count": 42,
      "max": [
        1,
        1
      ],
      "min": [
        0,
        0
      ],
      "type": "VEC2"
    },
    {
      "bufferView": 21,
      "componentType": 5126,
      "count": 240,
      "max": [
        -12.344407081604004,
        7.139132022857666,
        36.74235534667969
      ],
      "min": [
        -31.5634708404541,
        -13.068958282470703,
        13.89930534362793
      ],
      "type": "VEC3"
    },
    {
      "bufferView": 22,
      "componentType": 5126,
      "count": 240,
      "max": [
        0.9510483145713806,
        1,
        1
      ],
      "min": [
        -0.9510483145713806,
        -1,
        -1
      ],
      "type": "VEC3"
    },
    {
      "bufferView": 23,
      "componentType": 5126,
      "count": 240,
      "max": [
        1,
        0.47239601612091064
      ],
      "min": [
        0,
        0
      ],
      "type": "VEC2"
    },
    {
      "bufferView": 24,
      "componentType": 5126,
      "count": 240,
      "max": [
        -20.689653396606445,
        10.964714050292969,
        28.587413787841797
      ],
      "min": [
        -33.298458099365234,
        -2.2929506301879883,
        11.808039665222168
      ],
      "type": "VEC3"
    },
    {
      "bufferView": 25,
      "componentType": 5126,
      "count": 240,
      "max": [
        0.9510483145713806,
        1,
        1
      ],
      "min": [
        -0.9510483145713806,
        -1,
        -1
      ],
      "type": "VEC3"
    },
    {
      "bufferView": 26,
      "componentType": 5126,
      "count": 240,
      "max": [
        1,
        0.47239601612091064
      ],
      "min": [
        0,
        0
      ],
      "type": "VEC2"
    },
    {
      "bufferView": 27,
      "componentType": 5126,
      "count": 240,
      "max": [
        -9.241524696350098,
        0.7575194835662842,
        29.97986602783203
      ],
      "min": [
        -23.347787857055664,
        -14.074660301208496,
        11.207728385925293
      ],
      "type": "VEC3"
    },
    {
      "bufferView": 28,
      "componentType": 5126,
      "count": 240,
      "max": [
        0.9510483145713806,
        1,
        1
      ],
      "min": [
        -0.9510483145713806,
        -1,
        -1
      ],
      "type": "VEC3"
    },
    {
      "bufferView": 29,
      "componentType": 5126,
      "count": 240,
      "max": [
        1,
        0.47239601612091064
      ],
      "min": [
        0,
        0
      ],
      "type": "VEC2"
    }
  ],
  "materials": [
    {
      "pbrMetallicRoughness": {
        "baseColorFactor": [
          0.00789100842727018,
          0.000763931888496,
          0.000246130030944,
          1
        ],
        "metallicFactor": 0.5,
        "roughnessFactor": 0.5
      },
      "doubleSided": true,
      "name": "mat0"
    },
    {
      "pbrMetallicRoughness": {
        "baseColorFactor": [
          1,
          0.7379679423373384,
          0.15245416905849354,
          1
        ],
        "metallicFactor": 0.5,
        "roughnessFactor": 0.5
      },
      "name": "mat1"
    },
    {
      "pbrMetallicRoughness": {
        "baseColorFactor": [
          0.006229761116571685,
          0.021714443680700506,
          0,
          1
        ],
        "metallicFactor": 0.5,
        "roughnessFactor": 0.5
      },
      "name": "mat2"
    },
    {
      "pbrMetallicRoughness": {
        "baseColorFactor": [
          0.012352041865902833,
          0.16901132890952345,
          0.0030580495354080002,
          1
        ],
        "metallicFactor": 0.5,
        "roughnessFactor": 0.5
      },
      "doubleSided": true,
      "name": "mat3"
    },
    {
      "pbrMetallicRoughness": {
        "baseColorFactor": [
          0.00161377708968,
          0.6038273388475408,
          0.0013482972135360001,
          1
        ],
        "metallicFactor": 0.5,
        "roughnessFactor": 0.5
      },
      "doubleSided": true,
      "name": "mat4"
    },
    {
      "pbrMetallicRoughness": {
        "baseColorFactor": [
          0,
          0.13965277642186202,
          0.000120743034048,
          1
        ],
        "metallicFactor": 0.5,
        "roughnessFactor": 0.5
      },
      "doubleSided": true,
      "name": "mat5"
    },
    {
      "pbrMetallicRoughness": {
        "baseColorFactor": [
          0.000227554179552,
          1,
          0.00007739938080000001,
          1
        ],
        "metallicFactor": 0.5,
        "roughnessFactor": 0.5
      },
      "doubleSided": true,
      "name": "mat6"
    }
  ],
  "meshes": [
    {
      "primitives": [
        {
          "mode": 4,
          "attributes": {
            "POSITION": 0,
            "NORMAL": 1,
            "TEXCOORD_0": 2
          },
          "material": 0
        }
      ]
    },
    {
      "primitives": [
        {
          "mode": 4,
          "attributes": {
            "POSITION": 3,
            "NORMAL": 4,
            "TEXCOORD_0": 5
          },
          "material": 1
        }
      ]
    },
    {
      "primitives": [
        {
          "mode": 4,
          "attributes": {
            "POSITION": 3,
            "NORMAL": 4,
            "TEXCOORD_0": 5
          },
          "material": 2
        }
      ]
    },
    {
      "primitives": [
        {
          "mode": 4,
          "attributes": {
            "POSITION": 6,
            "NORMAL": 7,
            "TEXCOORD_0": 8
          },
          "material": 3
        }
      ]
    },
    {
      "primitives": [
        {
          "mode": 4,
          "attributes": {
            "POSITION": 9,
            "NORMAL": 10,
            "TEXCOORD_0": 11
          },
          "material": 4
        }
      ]
    },
    {
      "primitives": [
        {
          "mode": 4,
          "attributes": {
            "POSITION": 12,
            "NORMAL": 13,
            "TEXCOORD_0": 14
          },
          "material": 5
        }
      ]
    },
    {
      "primitives": [
        {
          "mode": 4,
          "attributes": {
            "POSITION": 15,
            "NORMAL": 16,
            "TEXCOORD_0": 17
          },
          "material": 5
        }
      ]
    },
    {
      "primitives": [
        {
          "mode": 4,
          "attributes": {
            "POSITION": 18,
            "NORMAL": 19,
            "TEXCOORD_0": 20
          },
          "material": 5
        }
      ]
    },
    {
      "primitives": [
        {
          "mode": 4,
          "attributes": {
            "POSITION": 21,
            "NORMAL": 22,
            "TEXCOORD_0": 23
          },
          "material": 6
        }
      ]
    },
    {
      "primitives": [
        {
          "mode": 4,
          "attributes": {
            "POSITION": 24,
            "NORMAL": 25,
            "TEXCOORD_0": 26
          },
          "material": 6
        }
      ]
    },
    {
      "primitives": [
        {
          "mode": 4,
          "attributes": {
            "POSITION": 27,
            "NORMAL": 28,
            "TEXCOORD_0": 29
          },
          "material": 6
        }
      ]
    }
  ]
}